<svg xmlns="http://www.w3.org/2000/svg" xmlns:xlink="http://www.w3.org/1999/xlink" width="500" zoomAndPan="magnify" viewBox="0 0 375 374.999991" height="500" preserveAspectRatio="xMidYMid meet" version="1.0"><defs><g/><clipPath id="cc6ae19125"><rect x="0" width="147" y="0" height="257"/></clipPath></defs><g fill="#000000" fill-opacity="1"><g transform="translate(69.811059, 297.873115)"><g><path d="M 238.5 -211.734375 L 149.15625 0 L 85.796875 0 L -3.15625 -211.734375 L 60.21875 -211.734375 L 118.859375 -67.6875 L 179.46875 -211.734375 Z M 238.5 -211.734375 "/></g></g></g><g transform="matrix(1, 0, 0, 1, 173, 0)"><g clip-path="url(#cc6ae19125)"><g fill="#ffffff" fill-opacity="1"><g transform="translate(1.647019, 191.704554)"><g><path d="M 102.46875 -61.640625 C 96.550781 -61.640625 91.351562 -62.738281 86.875 -64.9375 C 82.394531 -67.132812 77.28125 -70.257812 71.53125 -74.3125 C 67.8125 -77.019531 64.804688 -79.003906 62.515625 -80.265625 C 60.234375 -81.535156 57.910156 -82.171875 55.546875 -82.171875 C 51.316406 -82.171875 47.890625 -80.609375 45.265625 -77.484375 C 42.648438 -74.359375 41.257812 -70.003906 41.09375 -64.421875 L 11.40625 -64.421875 C 11.582031 -80.828125 15.390625 -93.59375 22.828125 -102.71875 C 30.265625 -111.851562 39.988281 -116.421875 52 -116.421875 C 58.082031 -116.421875 63.363281 -115.320312 67.84375 -113.125 C 72.332031 -110.925781 77.445312 -107.796875 83.1875 -103.734375 C 86.914062 -101.035156 89.921875 -99.050781 92.203125 -97.78125 C 94.484375 -96.507812 96.804688 -95.875 99.171875 -95.875 C 103.398438 -95.875 106.738281 -97.476562 109.1875 -100.6875 C 111.644531 -103.90625 113.039062 -108.304688 113.375 -113.890625 L 143.046875 -113.890625 C 142.878906 -97.316406 139.078125 -84.460938 131.640625 -75.328125 C 124.203125 -66.203125 114.476562 -61.640625 102.46875 -61.640625 Z M 102.46875 -61.640625 "/></g></g></g></g></g><g fill="#000000" fill-opacity="1"><g transform="translate(263.086893, 120.781252)"><g><path d="M 6.625 -12.515625 C 8.53125 -12.515625 9.992188 -12.054688 11.015625 -11.140625 C 12.046875 -10.234375 12.5625 -8.863281 12.5625 -7.03125 L 12.5625 0 L 9.21875 0 L 9.21875 -1.53125 C 8.539062 -0.382812 7.285156 0.1875 5.453125 0.1875 C 4.503906 0.1875 3.679688 0.0234375 2.984375 -0.296875 C 2.296875 -0.617188 1.765625 -1.0625 1.390625 -1.625 C 1.023438 -2.1875 0.84375 -2.828125 0.84375 -3.546875 C 0.84375 -4.691406 1.273438 -5.59375 2.140625 -6.25 C 3.003906 -6.914062 4.335938 -7.25 6.140625 -7.25 L 8.984375 -7.25 C 8.984375 -8.019531 8.742188 -8.613281 8.265625 -9.03125 C 7.796875 -9.457031 7.085938 -9.671875 6.140625 -9.671875 C 5.484375 -9.671875 4.835938 -9.566406 4.203125 -9.359375 C 3.566406 -9.148438 3.03125 -8.875 2.59375 -8.53125 L 1.3125 -11.03125 C 1.976562 -11.5 2.78125 -11.863281 3.71875 -12.125 C 4.664062 -12.382812 5.632812 -12.515625 6.625 -12.515625 Z M 6.34375 -2.21875 C 6.957031 -2.21875 7.5 -2.359375 7.96875 -2.640625 C 8.445312 -2.929688 8.785156 -3.347656 8.984375 -3.890625 L 8.984375 -5.15625 L 6.53125 -5.15625 C 5.0625 -5.15625 4.328125 -4.675781 4.328125 -3.71875 C 4.328125 -3.257812 4.503906 -2.894531 4.859375 -2.625 C 5.222656 -2.351562 5.71875 -2.21875 6.34375 -2.21875 Z M 6.34375 -2.21875 "/></g></g></g><g fill="#000000" fill-opacity="1"><g transform="translate(275.663434, 120.781252)"><g><path d="M 1.65625 -12.328125 L 5.21875 -12.328125 L 5.21875 0 L 1.65625 0 Z M 3.4375 -14.046875 C 2.78125 -14.046875 2.242188 -14.238281 1.828125 -14.625 C 1.421875 -15.007812 1.21875 -15.484375 1.21875 -16.046875 C 1.21875 -16.609375 1.421875 -17.082031 1.828125 -17.46875 C 2.242188 -17.851562 2.78125 -18.046875 3.4375 -18.046875 C 4.09375 -18.046875 4.625 -17.859375 5.03125 -17.484375 C 5.445312 -17.117188 5.65625 -16.660156 5.65625 -16.109375 C 5.65625 -15.515625 5.445312 -15.019531 5.03125 -14.625 C 4.625 -14.238281 4.09375 -14.046875 3.4375 -14.046875 Z M 3.4375 -14.046875 "/></g></g></g><g fill="#000000" fill-opacity="1"><g transform="translate(281.000351, 120.781252)"><g><path d="M 5.0625 -10.703125 C 5.488281 -11.296875 6.066406 -11.742188 6.796875 -12.046875 C 7.523438 -12.359375 8.363281 -12.515625 9.3125 -12.515625 L 9.3125 -9.21875 C 8.90625 -9.25 8.632812 -9.265625 8.5 -9.265625 C 7.476562 -9.265625 6.675781 -8.976562 6.09375 -8.40625 C 5.507812 -7.832031 5.21875 -6.972656 5.21875 -5.828125 L 5.21875 0 L 1.65625 0 L 1.65625 -12.328125 L 5.0625 -12.328125 Z M 5.0625 -10.703125 "/></g></g></g></svg>