<svg xmlns="http://www.w3.org/2000/svg" xmlns:xlink="http://www.w3.org/1999/xlink" width="500" zoomAndPan="magnify" viewBox="0 0 375 374.999991" height="500" preserveAspectRatio="xMidYMid meet" version="1.0"><defs><g/><clipPath id="c19d890047"><rect x="0" width="93" y="0" height="63"/></clipPath></defs><g fill="#000000" fill-opacity="1"><g transform="translate(69.811059, 297.873115)"><g><path d="M 238.5 -211.734375 L 149.15625 0 L 85.796875 0 L -3.15625 -211.734375 L 60.21875 -211.734375 L 118.859375 -67.6875 L 179.46875 -211.734375 Z M 238.5 -211.734375 "/></g></g></g><g transform="matrix(1, 0, 0, 1, 135, 233)"><g clip-path="url(#c19d890047)"><g fill="#ffffff" fill-opacity="1"><g transform="translate(0.595006, 49.44179)"><g><path d="M 20.703125 -12.453125 C 19.503906 -12.453125 18.453125 -12.671875 17.546875 -13.109375 C 16.640625 -13.554688 15.609375 -14.191406 14.453125 -15.015625 C 13.703125 -15.566406 13.09375 -15.96875 12.625 -16.21875 C 12.164062 -16.476562 11.695312 -16.609375 11.21875 -16.609375 C 10.363281 -16.609375 9.671875 -16.289062 9.140625 -15.65625 C 8.617188 -15.019531 8.335938 -14.140625 8.296875 -13.015625 L 2.3125 -13.015625 C 2.34375 -16.328125 3.109375 -18.90625 4.609375 -20.75 C 6.117188 -22.601562 8.082031 -23.53125 10.5 -23.53125 C 11.726562 -23.53125 12.796875 -23.304688 13.703125 -22.859375 C 14.609375 -22.410156 15.644531 -21.78125 16.8125 -20.96875 C 17.5625 -20.414062 18.164062 -20.007812 18.625 -19.75 C 19.09375 -19.5 19.5625 -19.375 20.03125 -19.375 C 20.882812 -19.375 21.5625 -19.695312 22.0625 -20.34375 C 22.5625 -20.988281 22.84375 -21.878906 22.90625 -23.015625 L 28.90625 -23.015625 C 28.875 -19.660156 28.101562 -17.0625 26.59375 -15.21875 C 25.09375 -13.375 23.128906 -12.453125 20.703125 -12.453125 Z M 20.703125 -12.453125 "/></g></g></g><g fill="#ffffff" fill-opacity="1"><g transform="translate(28.322525, 49.44179)"><g><path d="M 14.96875 -28.234375 C 19.582031 -28.234375 23.097656 -27.179688 25.515625 -25.078125 C 27.941406 -22.984375 29.15625 -19.765625 29.15625 -15.421875 L 29.15625 0 L 20.09375 0 L 20.09375 -3.59375 C 18.6875 -0.882812 15.953125 0.46875 11.890625 0.46875 C 9.734375 0.46875 7.867188 0.09375 6.296875 -0.65625 C 4.734375 -1.414062 3.546875 -2.4375 2.734375 -3.71875 C 1.929688 -5 1.53125 -6.457031 1.53125 -8.09375 C 1.53125 -10.726562 2.535156 -12.769531 4.546875 -14.21875 C 6.566406 -15.675781 9.679688 -16.40625 13.890625 -16.40625 L 19.421875 -16.40625 C 19.253906 -19.34375 17.289062 -20.8125 13.53125 -20.8125 C 12.195312 -20.8125 10.847656 -20.597656 9.484375 -20.171875 C 8.117188 -19.742188 6.957031 -19.15625 6 -18.40625 L 2.71875 -25.015625 C 4.25 -26.035156 6.117188 -26.828125 8.328125 -27.390625 C 10.535156 -27.953125 12.75 -28.234375 14.96875 -28.234375 Z M 14.609375 -5.6875 C 15.734375 -5.6875 16.722656 -5.957031 17.578125 -6.5 C 18.429688 -7.050781 19.046875 -7.859375 19.421875 -8.921875 L 19.421875 -11.328125 L 15.21875 -11.328125 C 12.382812 -11.328125 10.96875 -10.382812 10.96875 -8.5 C 10.96875 -7.644531 11.289062 -6.960938 11.9375 -6.453125 C 12.59375 -5.941406 13.484375 -5.6875 14.609375 -5.6875 Z M 14.609375 -5.6875 "/></g></g></g><g fill="#ffffff" fill-opacity="1"><g transform="translate(57.023843, 49.44179)"><g><path d="M 3.125 -27.78125 L 12.859375 -27.78125 L 12.859375 0 L 3.125 0 Z M 8 -30.859375 C 6.21875 -30.859375 4.78125 -31.351562 3.6875 -32.34375 C 2.601562 -33.332031 2.0625 -34.5625 2.0625 -36.03125 C 2.0625 -37.5 2.601562 -38.726562 3.6875 -39.71875 C 4.78125 -40.707031 6.21875 -41.203125 8 -41.203125 C 9.78125 -41.203125 11.210938 -40.734375 12.296875 -39.796875 C 13.390625 -38.859375 13.9375 -37.65625 13.9375 -36.1875 C 13.9375 -34.644531 13.390625 -33.367188 12.296875 -32.359375 C 11.210938 -31.359375 9.78125 -30.859375 8 -30.859375 Z M 8 -30.859375 "/></g></g></g><g fill="#ffffff" fill-opacity="1"><g transform="translate(69.580672, 49.44179)"><g><path d="M 12.40625 -24.453125 C 13.394531 -25.710938 14.679688 -26.65625 16.265625 -27.28125 C 17.859375 -27.914062 19.679688 -28.234375 21.734375 -28.234375 L 21.734375 -19.46875 C 20.835938 -19.570312 20.101562 -19.625 19.53125 -19.625 C 17.445312 -19.625 15.8125 -19.0625 14.625 -17.9375 C 13.445312 -16.8125 12.859375 -15.085938 12.859375 -12.765625 L 12.859375 0 L 3.125 0 L 3.125 -27.78125 L 12.40625 -27.78125 Z M 12.40625 -24.453125 "/></g></g></g></g></g></svg>