<svg xmlns="http://www.w3.org/2000/svg" xmlns:xlink="http://www.w3.org/1999/xlink" width="500" zoomAndPan="magnify" viewBox="0 0 375 374.999991" height="500" preserveAspectRatio="xMidYMid meet" version="1.0"><defs><g/><clipPath id="f9a21505c0"><path d="M 0.800781 0.558594 L 326 0.558594 L 326 174.800781 L 0.800781 174.800781 Z M 0.800781 0.558594 " clip-rule="nonzero"/></clipPath><clipPath id="a31df1625d"><rect x="0" width="326" y="0" height="175"/></clipPath><clipPath id="deb44eaac2"><path d="M 274.152344 49.8125 L 353 49.8125 L 353 137.792969 L 274.152344 137.792969 Z M 274.152344 49.8125 " clip-rule="nonzero"/></clipPath><clipPath id="406a892342"><path d="M 328 55 L 353 55 L 353 85 L 328 85 Z M 328 55 " clip-rule="nonzero"/></clipPath><clipPath id="02ba89259e"><path d="M 349 56 L 353 56 L 353 64 L 349 64 Z M 349 56 " clip-rule="nonzero"/></clipPath><clipPath id="8e2202a98f"><rect x="0" width="353" y="0" height="175"/></clipPath></defs><g transform="matrix(1, 0, 0, 1, 22, 82)"><g clip-path="url(#8e2202a98f)"><g clip-path="url(#f9a21505c0)"><g><g clip-path="url(#a31df1625d)"><g fill="#000000" fill-opacity="1"><g transform="translate(4.212453, 138.429831)"><g><path d="M 90.125 -77.28125 L 58.171875 0 L 30.234375 0 L -1.5625 -77.28125 L 26.234375 -77.28125 L 44.78125 -30.09375 L 64.3125 -77.28125 Z M 90.125 -77.28125 "/></g></g></g><g fill="#000000" fill-opacity="1"><g transform="translate(80.493104, 138.429831)"><g><path d="M 90.125 -77.28125 L 56.75 3.140625 C 52.851562 12.640625 48.097656 19.316406 42.484375 23.171875 C 36.878906 27.023438 30.035156 28.953125 21.953125 28.953125 C 17.867188 28.953125 13.757812 28.304688 9.625 27.015625 C 5.488281 25.734375 2.140625 24.046875 -0.421875 21.953125 L 8.984375 3 C 10.503906 4.425781 12.332031 5.539062 14.46875 6.34375 C 16.613281 7.15625 18.78125 7.5625 20.96875 7.5625 C 23.53125 7.5625 25.640625 7.035156 27.296875 5.984375 C 28.960938 4.941406 30.367188 3.28125 31.515625 1 L -1.5625 -77.28125 L 26.234375 -77.28125 L 45.203125 -30.09375 L 64.3125 -77.28125 Z M 90.125 -77.28125 "/></g></g></g><g fill="#000000" fill-opacity="1"><g transform="translate(159.197855, 138.429831)"><g><path d="M 59.03125 -78.5625 C 68.632812 -78.5625 76.359375 -75.707031 82.203125 -70 C 88.046875 -64.300781 90.96875 -55.703125 90.96875 -44.203125 L 90.96875 0 L 63.875 0 L 63.875 -39.78125 C 63.875 -50.332031 59.644531 -55.609375 51.1875 -55.609375 C 46.53125 -55.609375 42.800781 -54.085938 40 -51.046875 C 37.195312 -48.003906 35.796875 -43.441406 35.796875 -37.359375 L 35.796875 0 L 8.703125 0 L 8.703125 -77.28125 L 34.5 -77.28125 L 34.5 -68.875 C 37.550781 -72.007812 41.164062 -74.40625 45.34375 -76.0625 C 49.53125 -77.726562 54.09375 -78.5625 59.03125 -78.5625 Z M 59.03125 -78.5625 "/></g></g></g><g fill="#000000" fill-opacity="1"><g transform="translate(248.738945, 138.429831)"><g><path d="M 36.796875 1.28125 C 30.328125 1.28125 23.953125 0.546875 17.671875 -0.921875 C 11.398438 -2.398438 6.363281 -4.328125 2.5625 -6.703125 L 10.6875 -25.234375 C 14.207031 -23.046875 18.390625 -21.3125 23.234375 -20.03125 C 28.085938 -18.75 32.890625 -18.109375 37.640625 -18.109375 C 42.015625 -18.109375 45.128906 -18.554688 46.984375 -19.453125 C 48.835938 -20.359375 49.765625 -21.671875 49.765625 -23.390625 C 49.765625 -25.097656 48.644531 -26.304688 46.40625 -27.015625 C 44.175781 -27.734375 40.640625 -28.425781 35.796875 -29.09375 C 29.609375 -29.851562 24.351562 -30.847656 20.03125 -32.078125 C 15.707031 -33.316406 11.976562 -35.597656 8.84375 -38.921875 C 5.707031 -42.253906 4.140625 -46.914062 4.140625 -52.90625 C 4.140625 -57.84375 5.609375 -62.238281 8.546875 -66.09375 C 11.492188 -69.945312 15.796875 -72.988281 21.453125 -75.21875 C 27.109375 -77.445312 33.882812 -78.5625 41.78125 -78.5625 C 47.382812 -78.5625 52.941406 -77.988281 58.453125 -76.84375 C 63.972656 -75.707031 68.585938 -74.097656 72.296875 -72.015625 L 64.171875 -53.609375 C 57.328125 -57.410156 49.910156 -59.3125 41.921875 -59.3125 C 37.640625 -59.3125 34.5 -58.8125 32.5 -57.8125 C 30.507812 -56.820312 29.515625 -55.519531 29.515625 -53.90625 C 29.515625 -52.09375 30.609375 -50.828125 32.796875 -50.109375 C 34.984375 -49.398438 38.597656 -48.664062 43.640625 -47.90625 C 50.003906 -46.957031 55.273438 -45.863281 59.453125 -44.625 C 63.640625 -43.394531 67.273438 -41.140625 70.359375 -37.859375 C 73.453125 -34.578125 75 -29.988281 75 -24.09375 C 75 -19.25 73.523438 -14.898438 70.578125 -11.046875 C 67.628906 -7.203125 63.28125 -4.1875 57.53125 -2 C 51.78125 0.1875 44.867188 1.28125 36.796875 1.28125 Z M 36.796875 1.28125 "/></g></g></g></g></g></g><path fill="#ffffff" d="M 308.34375 114.425781 C 302.808594 115.726562 301.75 116.78125 300.449219 122.320312 C 299.144531 116.785156 298.089844 115.726562 292.550781 114.425781 C 298.089844 113.121094 299.144531 112.066406 300.449219 106.527344 C 301.75 112.066406 302.808594 113.121094 308.34375 114.425781 Z M 308.34375 114.425781 " fill-opacity="1" fill-rule="nonzero"/><g clip-path="url(#deb44eaac2)"><path fill="#ffffff" d="M 362.417969 93.945312 C 321.609375 95.78125 320.121094 97.269531 318.285156 138.082031 C 316.453125 97.269531 314.964844 95.78125 274.152344 93.945312 C 314.964844 92.113281 316.453125 90.625 318.285156 49.8125 C 320.121094 90.625 321.609375 92.113281 362.417969 93.945312 Z M 362.417969 93.945312 " fill-opacity="1" fill-rule="nonzero"/></g><path fill="#ffffff" d="M 308.320312 70.636719 C 299.207031 71.046875 298.875 71.378906 298.464844 80.492188 C 298.054688 71.378906 297.722656 71.046875 288.609375 70.636719 C 297.722656 70.226562 298.054688 69.894531 298.464844 60.78125 C 298.875 69.894531 299.207031 70.226562 308.320312 70.636719 Z M 308.320312 70.636719 " fill-opacity="1" fill-rule="nonzero"/><g clip-path="url(#406a892342)"><path fill="#ffffff" d="M 357.8125 69.800781 C 344.425781 70.402344 343.9375 70.890625 343.335938 84.277344 C 342.734375 70.890625 342.246094 70.402344 328.863281 69.800781 C 342.246094 69.199219 342.734375 68.714844 343.335938 55.328125 C 343.9375 68.714844 344.425781 69.199219 357.8125 69.800781 Z M 357.8125 69.800781 " fill-opacity="1" fill-rule="nonzero"/></g><g clip-path="url(#02ba89259e)"><path fill="#ffffff" d="M 357.8125 59.945312 C 354.164062 60.109375 354.03125 60.242188 353.867188 63.886719 C 353.703125 60.242188 353.570312 60.109375 349.925781 59.945312 C 353.570312 59.78125 353.703125 59.648438 353.867188 56.003906 C 354.03125 59.648438 354.164062 59.78125 357.8125 59.945312 Z M 357.8125 59.945312 " fill-opacity="1" fill-rule="nonzero"/></g><path fill="#ffffff" d="M 335.074219 55.328125 C 331.425781 55.492188 331.292969 55.625 331.128906 59.269531 C 330.964844 55.625 330.832031 55.492188 327.1875 55.328125 C 330.832031 55.164062 330.964844 55.03125 331.128906 51.386719 C 331.292969 55.03125 331.425781 55.164062 335.074219 55.328125 Z M 335.074219 55.328125 " fill-opacity="1" fill-rule="nonzero"/></g></g></svg>