<svg xmlns="http://www.w3.org/2000/svg" xmlns:xlink="http://www.w3.org/1999/xlink" width="464" zoomAndPan="magnify" viewBox="0 0 348 191.999996" height="256" preserveAspectRatio="xMidYMid meet" version="1.0"><defs><g/><clipPath id="fa09b5f599"><path d="M 40.285156 113.046875 L 59.035156 113.046875 L 59.035156 118 L 40.285156 118 Z M 40.285156 113.046875 " clip-rule="nonzero"/></clipPath></defs><g fill="#000000" fill-opacity="1"><g transform="translate(32.629687, 125.999992)"><g><path d="M 20.875 -62.875 L 20.875 -21 L 42 -21 L 42 -62.875 L 62.765625 -62.875 L 62.765625 -41.40625 L 27 -0.125 L -0.125 -0.125 L -0.125 -62.875 Z M 20.875 -62.875 "/></g></g></g><g fill="#000000" fill-opacity="1"><g transform="translate(104.389711, 125.999992)"><g><path d="M 0 -63.234375 L 0 0 L 23.515625 0 L 40.921875 -21.125 L 21 -21.125 L 21 -63.234375 Z M 63.234375 0 L 42.234375 21.125 L 25.6875 21.125 L 25.6875 0 L 42.125 0 L 42.125 -63.234375 L 63.234375 -63.234375 Z M 63.234375 0 "/></g></g></g><g fill="#000000" fill-opacity="1"><g transform="translate(176.749738, 125.999992)"><g><path d="M 41.875 -0.125 L 41.875 -42.234375 L 20.765625 -42.234375 L 20.765625 -0.125 L -0.125 -0.125 L -0.125 -63.234375 L 20.765625 -63.234375 L 20.765625 -45.234375 L 35.765625 -63.234375 L 62.875 -63.234375 L 62.875 -0.125 Z M 41.875 -0.125 "/></g></g></g><g fill="#000000" fill-opacity="1"><g transform="translate(248.749768, 125.999992)"><g><path d="M 18 -21 L -0.125 -36.125 L -0.125 -63.125 L 63 -63.125 L 63 -42.125 L 44.40625 -42.125 L 63 -27 L 63 0 L -0.125 0 L -0.125 -21 Z M 20.875 -42.125 L 20.875 -21 L 41.765625 -21 L 41.765625 -42.125 Z M 20.875 -42.125 "/></g></g></g><g clip-path="url(#fa09b5f599)"><path fill="#000000" d="M 40.308594 113.046875 C 40.308594 113.957031 41.046875 114.691406 41.957031 114.691406 L 46.320312 114.691406 C 46.710938 114.691406 47.066406 114.921875 47.230469 115.277344 L 48.425781 117.921875 C 49.253906 117.539062 49.613281 116.558594 49.230469 115.734375 L 48.371094 113.816406 C 48.152344 113.347656 47.679688 113.046875 47.164062 113.046875 Z M 43.445312 117.921875 L 47.40625 117.921875 C 47.40625 117.011719 46.851562 116.273438 46.164062 116.273438 L 42.203125 116.273438 C 42.203125 117.183594 42.761719 117.921875 43.445312 117.921875 Z M 52.320312 113.046875 C 51.804688 113.046875 51.332031 113.347656 51.113281 113.816406 L 50.253906 115.734375 C 49.871094 116.558594 50.230469 117.539062 51.058594 117.921875 L 52.253906 115.277344 C 52.417969 114.921875 52.773438 114.691406 53.167969 114.691406 L 57.527344 114.691406 C 58.4375 114.691406 59.175781 113.957031 59.175781 113.046875 Z M 56.039062 117.921875 L 52.078125 117.921875 C 52.078125 117.011719 52.632812 116.273438 53.320312 116.273438 L 57.28125 116.273438 C 57.28125 117.183594 56.722656 117.921875 56.039062 117.921875 " fill-opacity="1" fill-rule="nonzero"/></g></svg>