<svg xmlns="http://www.w3.org/2000/svg" xmlns:xlink="http://www.w3.org/1999/xlink" width="289" zoomAndPan="magnify" viewBox="0 0 216.75 124.499996" height="166" preserveAspectRatio="xMidYMid meet" version="1.0"><defs><g/><clipPath id="2934aae42a"><path d="M 18.339844 0 L 197.617188 0 L 197.617188 46.3125 L 18.339844 46.3125 Z M 18.339844 0 " clip-rule="nonzero"/></clipPath><clipPath id="d31a9ee761"><path d="M 0.53125 16 L 36 16 L 36 51 L 0.53125 51 Z M 0.53125 16 " clip-rule="nonzero"/></clipPath><clipPath id="bdd9858045"><rect x="0" width="129" y="0" height="67"/></clipPath></defs><g clip-path="url(#2934aae42a)"><path fill="#000000" d="M 18.523438 -0.00390625 C 18.523438 8.636719 25.527344 15.640625 34.167969 15.640625 L 75.605469 15.640625 C 79.324219 15.640625 82.699219 17.800781 84.261719 21.175781 L 95.636719 46.304688 C 103.480469 42.675781 106.898438 33.378906 103.269531 25.539062 L 95.089844 7.324219 C 93.027344 2.855469 88.550781 -0.00390625 83.628906 -0.00390625 Z M 48.328125 46.304688 L 85.941406 46.304688 C 85.941406 37.664062 80.660156 30.660156 74.148438 30.660156 L 36.53125 30.660156 C 36.53125 39.300781 41.8125 46.304688 48.328125 46.304688 Z M 132.621094 -0.00390625 C 127.699219 -0.00390625 123.222656 2.855469 121.160156 7.324219 L 112.980469 25.539062 C 109.355469 33.378906 112.769531 42.675781 120.613281 46.304688 L 131.988281 21.175781 C 133.550781 17.800781 136.925781 15.640625 140.644531 15.640625 L 182.078125 15.640625 C 190.722656 15.640625 197.722656 8.636719 197.722656 -0.00390625 Z M 167.921875 46.304688 L 130.308594 46.304688 C 130.308594 37.664062 135.589844 30.660156 142.105469 30.660156 L 179.71875 30.660156 C 179.71875 39.300781 174.4375 46.304688 167.921875 46.304688 " fill-opacity="1" fill-rule="nonzero"/></g><g transform="matrix(1, 0, 0, 1, 44, 39)"><g clip-path="url(#bdd9858045)"><g clip-path="url(#d31a9ee761)"><g fill="#000000" fill-opacity="1"><g transform="translate(0.845976, 50.485953)"><g><path d="M 0 -34.375 L 14.84375 -34.375 L 17.375 -14.796875 L 19.84375 -34.375 L 34.6875 -34.375 L 25.84375 0 L 8.84375 0 Z M 0 -34.375 "/></g></g></g></g><g fill="#000000" fill-opacity="1"><g transform="translate(35.534995, 50.485953)"><g><path d="M 8.84375 0 L 0 -34.375 L 14.84375 -34.375 L 17.328125 -14.84375 L 19.84375 -34.375 L 34.6875 -34.375 L 30.515625 -18.28125 L 22.953125 11.453125 L 9.390625 11.453125 L 12.28125 0 Z M 8.84375 0 "/></g></g></g><g fill="#000000" fill-opacity="1"><g transform="translate(70.178184, 50.485953)"><g><path d="M 0.6875 -34.375 L 16.453125 -34.375 C 18.953125 -34.375 21.269531 -33.898438 23.40625 -32.953125 C 25.550781 -32.003906 27.269531 -30.554688 28.5625 -28.609375 C 29.863281 -26.671875 30.515625 -24.191406 30.515625 -21.171875 L 30.515625 0 L 16.765625 0 L 16.765625 -17.96875 C 16.765625 -18.757812 16.710938 -19.414062 16.609375 -19.9375 C 16.503906 -20.457031 16.097656 -20.71875 15.390625 -20.71875 L 14.4375 -20.71875 L 14.4375 0 L 0.6875 0 Z M 0.6875 -34.375 "/></g></g></g><g fill="#000000" fill-opacity="1"><g transform="translate(101.384551, 50.485953)"><g><path d="M 15.4375 0 L 0 0 L 0 -13.75 L 4.359375 -13.75 C 5.273438 -13.75 6.082031 -13.800781 6.78125 -13.90625 C 7.488281 -14.007812 7.84375 -14.398438 7.84375 -15.078125 C 7.84375 -15.503906 7.570312 -15.976562 7.03125 -16.5 C 6.5 -17.019531 5.847656 -17.625 5.078125 -18.3125 C 4.316406 -19 3.546875 -19.757812 2.765625 -20.59375 C 1.992188 -21.4375 1.335938 -22.375 0.796875 -23.40625 C 0.265625 -24.445312 0 -25.597656 0 -26.859375 C 0 -28.503906 0.398438 -29.882812 1.203125 -31 C 2.015625 -32.113281 3.078125 -32.953125 4.390625 -33.515625 C 5.710938 -34.085938 7.148438 -34.375 8.703125 -34.375 L 24.65625 -34.375 L 24.65625 -20.578125 L 22.453125 -20.578125 C 20.929688 -20.578125 19.867188 -20.53125 19.265625 -20.4375 C 18.671875 -20.34375 18.375 -20.035156 18.375 -19.515625 C 18.375 -19.085938 18.625 -18.628906 19.125 -18.140625 C 19.632812 -17.660156 20.253906 -17.117188 20.984375 -16.515625 C 21.722656 -15.921875 22.457031 -15.234375 23.1875 -14.453125 C 23.914062 -13.679688 24.53125 -12.8125 25.03125 -11.84375 C 25.539062 -10.882812 25.796875 -9.78125 25.796875 -8.53125 C 25.796875 -6.90625 25.488281 -5.550781 24.875 -4.46875 C 24.269531 -3.382812 23.460938 -2.515625 22.453125 -1.859375 C 21.441406 -1.203125 20.328125 -0.726562 19.109375 -0.4375 C 17.890625 -0.144531 16.664062 0 15.4375 0 Z M 15.4375 0 "/></g></g></g></g></g></svg>