<svg xmlns="http://www.w3.org/2000/svg" xmlns:xlink="http://www.w3.org/1999/xlink" width="500" zoomAndPan="magnify" viewBox="0 0 375 374.999991" height="500" preserveAspectRatio="xMidYMid meet" version="1.0"><defs><g/><clipPath id="8a2f0b7b5b"><path d="M 118.3125 72 L 167 72 L 167 247 L 118.3125 247 Z M 118.3125 72 " clip-rule="nonzero"/></clipPath><clipPath id="108dedd442"><path d="M 202 72 L 255.5625 72 L 255.5625 247 L 202 247 Z M 202 72 " clip-rule="nonzero"/></clipPath><clipPath id="c3dea07661"><path d="M 131 37.5 L 255.5625 37.5 L 255.5625 137 L 131 137 Z M 131 37.5 " clip-rule="nonzero"/></clipPath><clipPath id="a364295b20"><path d="M 118.3125 181 L 238 181 L 238 281.25 L 118.3125 281.25 Z M 118.3125 181 " clip-rule="nonzero"/></clipPath></defs><g fill="#ffffff" fill-opacity="1"><g transform="translate(116.017734, 328.54404)"><g><path d="M 28.6875 -26.5625 L 17.1875 0 L 11.109375 0 L -0.34375 -26.5625 L 6.296875 -26.5625 L 14.375 -7.59375 L 22.578125 -26.5625 Z M 28.6875 -26.5625 "/></g></g></g><g fill="#ffffff" fill-opacity="1"><g transform="translate(155.698322, 328.54404)"><g><path d="M 15.890625 -9.40625 L 15.890625 0 L 9.75 0 L 9.75 -9.484375 L -0.53125 -26.5625 L 6 -26.5625 L 13.09375 -14.75 L 20.1875 -26.5625 L 26.21875 -26.5625 Z M 15.890625 -9.40625 "/></g></g></g><g fill="#ffffff" fill-opacity="1"><g transform="translate(192.723562, 328.54404)"><g><path d="M 27.5 -26.5625 L 27.5 0 L 22.453125 0 L 9.21875 -16.125 L 9.21875 0 L 3.15625 0 L 3.15625 -26.5625 L 8.234375 -26.5625 L 21.4375 -10.4375 L 21.4375 -26.5625 Z M 27.5 -26.5625 "/></g></g></g><g fill="#ffffff" fill-opacity="1"><g transform="translate(234.756037, 328.54404)"><g><path d="M 11.875 0.453125 C 9.769531 0.453125 7.738281 0.171875 5.78125 -0.390625 C 3.820312 -0.960938 2.25 -1.707031 1.0625 -2.625 L 3.15625 -7.25 C 4.289062 -6.414062 5.640625 -5.742188 7.203125 -5.234375 C 8.773438 -4.734375 10.34375 -4.484375 11.90625 -4.484375 C 13.65625 -4.484375 14.945312 -4.738281 15.78125 -5.25 C 16.613281 -5.769531 17.03125 -6.460938 17.03125 -7.328125 C 17.03125 -7.953125 16.78125 -8.472656 16.28125 -8.890625 C 15.789062 -9.304688 15.160156 -9.640625 14.390625 -9.890625 C 13.617188 -10.148438 12.578125 -10.429688 11.265625 -10.734375 C 9.242188 -11.210938 7.585938 -11.691406 6.296875 -12.171875 C 5.003906 -12.660156 3.894531 -13.429688 2.96875 -14.484375 C 2.050781 -15.546875 1.59375 -16.960938 1.59375 -18.734375 C 1.59375 -20.285156 2.007812 -21.6875 2.84375 -22.9375 C 3.675781 -24.1875 4.929688 -25.175781 6.609375 -25.90625 C 8.296875 -26.644531 10.351562 -27.015625 12.78125 -27.015625 C 14.476562 -27.015625 16.132812 -26.8125 17.75 -26.40625 C 19.375 -26 20.789062 -25.414062 22 -24.65625 L 20.109375 -20 C 17.648438 -21.382812 15.195312 -22.078125 12.75 -22.078125 C 11.03125 -22.078125 9.757812 -21.796875 8.9375 -21.234375 C 8.113281 -20.679688 7.703125 -19.953125 7.703125 -19.046875 C 7.703125 -18.128906 8.175781 -17.445312 9.125 -17 C 10.070312 -16.5625 11.519531 -16.128906 13.46875 -15.703125 C 15.488281 -15.222656 17.144531 -14.742188 18.4375 -14.265625 C 19.726562 -13.785156 20.832031 -13.023438 21.75 -11.984375 C 22.675781 -10.953125 23.140625 -9.550781 23.140625 -7.78125 C 23.140625 -6.257812 22.710938 -4.875 21.859375 -3.625 C 21.015625 -2.375 19.742188 -1.378906 18.046875 -0.640625 C 16.359375 0.0859375 14.300781 0.453125 11.875 0.453125 Z M 11.875 0.453125 "/></g></g></g><g clip-path="url(#8a2f0b7b5b)"><path fill="#ffffff" d="M 166.125 159.257812 L 94.578125 72.128906 L 55.371094 72.128906 L 126.917969 159.257812 L 55.371094 246.386719 L 94.578125 246.386719 Z M 166.125 159.257812 " fill-opacity="1" fill-rule="nonzero"/></g><g clip-path="url(#108dedd442)"><path fill="#ffffff" d="M 274.585938 72.128906 L 202.992188 159.257812 L 274.585938 246.386719 L 313.742188 246.386719 L 242.199219 159.257812 L 313.742188 72.128906 Z M 274.585938 72.128906 " fill-opacity="1" fill-rule="nonzero"/></g><g clip-path="url(#c3dea07661)"><path fill="#ffffff" d="M 184.582031 136.804688 L 237.71875 72.128906 L 266.160156 37.5 L 226.953125 37.5 L 198.511719 72.128906 L 184.582031 89.125 L 170.652344 72.128906 L 131.445312 72.128906 Z M 184.582031 136.804688 " fill-opacity="1" fill-rule="nonzero"/></g><g clip-path="url(#a364295b20)"><path fill="#ffffff" d="M 184.582031 181.710938 L 131.445312 246.386719 L 102.957031 281.015625 L 142.160156 281.015625 L 170.652344 246.386719 L 184.582031 229.390625 L 198.511719 246.386719 L 237.71875 246.386719 Z M 184.582031 181.710938 " fill-opacity="1" fill-rule="nonzero"/></g><path fill="#ffffff" d="M 184.582031 229.390625 L 204.210938 205.527344 L 184.582031 181.710938 L 166.125 159.257812 L 131.445312 164.710938 Z M 184.582031 229.390625 " fill-opacity="1" fill-rule="nonzero"/></svg>