<svg xmlns="http://www.w3.org/2000/svg" xmlns:xlink="http://www.w3.org/1999/xlink" width="466" zoomAndPan="magnify" viewBox="0 0 349.5 186.749995" height="249" preserveAspectRatio="xMidYMid meet" version="1.0"><defs><g/><clipPath id="e85f876f6d"><path d="M 0 0.0078125 L 349 0.0078125 L 349 89.878906 L 0 89.878906 Z M 0 0.0078125 " clip-rule="nonzero"/></clipPath><clipPath id="3df951904e"><rect x="0" width="202" y="0" height="67"/></clipPath></defs><g clip-path="url(#e85f876f6d)"><path fill="#000000" d="M 0.351562 0 C 0.351562 16.796875 13.960938 30.40625 30.753906 30.40625 L 111.273438 30.40625 C 118.496094 30.40625 125.058594 34.601562 128.089844 41.15625 L 150.199219 89.992188 C 165.4375 82.941406 172.078125 64.871094 165.03125 49.632812 L 149.140625 14.242188 C 145.125 5.558594 136.429688 0 126.863281 0 Z M 58.261719 89.992188 L 131.359375 89.992188 C 131.359375 73.199219 121.097656 59.589844 108.4375 59.589844 L 35.339844 59.589844 C 35.339844 76.378906 45.601562 89.992188 58.261719 89.992188 Z M 222.066406 0 C 212.5 0 203.808594 5.558594 199.792969 14.242188 L 183.902344 49.632812 C 176.851562 64.871094 183.492188 82.941406 198.730469 89.992188 L 220.839844 41.15625 C 223.871094 34.601562 230.433594 30.40625 237.65625 30.40625 L 318.175781 30.40625 C 334.96875 30.40625 348.578125 16.796875 348.578125 0 Z M 290.667969 89.992188 L 217.574219 89.992188 C 217.574219 73.199219 227.832031 59.589844 240.496094 59.589844 L 313.589844 59.589844 C 313.589844 76.378906 303.328125 89.992188 290.667969 89.992188 " fill-opacity="1" fill-rule="nonzero"/></g><g transform="matrix(1, 0, 0, 1, 79, 99)"><g clip-path="url(#3df951904e)"><g fill="#000000" fill-opacity="1"><g transform="translate(3.01408, 49.516601)"><g><path d="M 28.421875 -40.59375 L 38.359375 -40.59375 L 23.75 0 L 13.734375 0 L -0.875 -40.59375 L 9.0625 -40.59375 L 18.734375 -11.5625 Z M 28.421875 -40.59375 "/></g></g></g><g fill="#000000" fill-opacity="1"><g transform="translate(51.694573, 49.516601)"><g><path d="M 36.46875 -40.59375 L 22.328125 -19.140625 L 22.328125 0 L 13.390625 0 L 13.390625 -19.078125 L -0.875 -40.59375 L 9.203125 -40.59375 L 17.859375 -26.859375 L 26.515625 -40.59375 Z M 36.46875 -40.59375 "/></g></g></g><g fill="#000000" fill-opacity="1"><g transform="translate(98.548582, 49.516601)"><g><path d="M 33.15625 -40.59375 L 42.015625 -40.59375 L 42.015625 0 L 32.8125 0 L 12.921875 -26.921875 L 12.921875 0 L 3.984375 0 L 3.984375 -40.59375 L 13.1875 -40.59375 L 33.15625 -13.734375 Z M 33.15625 -40.59375 "/></g></g></g><g fill="#000000" fill-opacity="1"><g transform="translate(155.820328, 49.516601)"><g><path d="M 16.515625 0.546875 C 12.941406 0.546875 9.800781 -0.332031 7.09375 -2.09375 C 4.394531 -3.851562 2.390625 -6 1.078125 -8.53125 L 8.453125 -13.125 C 9.222656 -11.539062 10.304688 -10.265625 11.703125 -9.296875 C 13.097656 -8.328125 14.722656 -7.84375 16.578125 -7.84375 C 18.148438 -7.84375 19.375 -8.179688 20.25 -8.859375 C 21.132812 -9.535156 21.578125 -10.4375 21.578125 -11.5625 C 21.578125 -12.738281 21.125 -13.6875 20.21875 -14.40625 C 19.320312 -15.132812 18.160156 -15.742188 16.734375 -16.234375 C 15.316406 -16.734375 13.804688 -17.265625 12.203125 -17.828125 C 10.609375 -18.390625 9.097656 -19.117188 7.671875 -20.015625 C 6.253906 -20.921875 5.09375 -22.09375 4.1875 -23.53125 C 3.289062 -24.976562 2.84375 -26.851562 2.84375 -29.15625 C 2.84375 -31.863281 3.472656 -34.097656 4.734375 -35.859375 C 5.992188 -37.617188 7.628906 -38.9375 9.640625 -39.8125 C 11.648438 -40.695312 13.710938 -41.140625 15.828125 -41.140625 C 18.359375 -41.140625 20.703125 -40.609375 22.859375 -39.546875 C 25.023438 -38.484375 26.851562 -37.097656 28.34375 -35.390625 L 22.390625 -29.703125 C 21.398438 -30.828125 20.335938 -31.691406 19.203125 -32.296875 C 18.078125 -32.910156 16.929688 -33.21875 15.765625 -33.21875 C 14.679688 -33.21875 13.753906 -32.945312 12.984375 -32.40625 C 12.222656 -31.863281 11.84375 -31.007812 11.84375 -29.84375 C 11.84375 -28.664062 12.289062 -27.738281 13.1875 -27.0625 C 14.09375 -26.382812 15.253906 -25.796875 16.671875 -25.296875 C 18.097656 -24.804688 19.597656 -24.265625 21.171875 -23.671875 C 22.753906 -23.085938 24.253906 -22.320312 25.671875 -21.375 C 27.097656 -20.425781 28.257812 -19.175781 29.15625 -17.625 C 30.0625 -16.070312 30.515625 -14.03125 30.515625 -11.5 C 30.515625 -8.976562 29.867188 -6.8125 28.578125 -5 C 27.296875 -3.195312 25.59375 -1.820312 23.46875 -0.875 C 21.351562 0.0703125 19.035156 0.546875 16.515625 0.546875 Z M 16.515625 0.546875 "/></g></g></g></g></g></svg>