<svg xmlns="http://www.w3.org/2000/svg" xmlns:xlink="http://www.w3.org/1999/xlink" width="500" zoomAndPan="magnify" viewBox="0 0 375 374.999991" height="500" preserveAspectRatio="xMidYMid meet" version="1.0"><defs><g/><clipPath id="834d0ec6e5"><path d="M 13 84.472656 L 362 84.472656 L 362 174.472656 L 13 174.472656 Z M 13 84.472656 " clip-rule="nonzero"/></clipPath><clipPath id="0d97500618"><rect x="0" width="202" y="0" height="67"/></clipPath></defs><rect x="-37.5" width="450" fill="#ffffff" y="-37.499999" height="449.999989" fill-opacity="1"/><rect x="-37.5" width="450" fill="#ffffff" y="-37.499999" height="449.999989" fill-opacity="1"/><g clip-path="url(#834d0ec6e5)"><path fill="#000000" d="M 13.128906 84.464844 C 13.128906 101.28125 26.761719 114.910156 43.574219 114.910156 L 124.210938 114.910156 C 131.445312 114.910156 138.015625 119.113281 141.054688 125.675781 L 163.191406 174.585938 C 178.453125 167.523438 185.105469 149.429688 178.042969 134.167969 L 162.132812 98.726562 C 158.109375 90.03125 149.402344 84.464844 139.824219 84.464844 Z M 71.125 174.585938 L 144.324219 174.585938 C 144.324219 157.765625 134.050781 144.136719 121.371094 144.136719 L 48.171875 144.136719 C 48.171875 160.953125 58.449219 174.585938 71.125 174.585938 Z M 235.164062 84.464844 C 225.585938 84.464844 216.878906 90.03125 212.859375 98.726562 L 196.945312 134.167969 C 189.886719 149.429688 196.535156 167.523438 211.792969 174.585938 L 233.9375 125.675781 C 236.972656 119.113281 243.542969 114.910156 250.777344 114.910156 L 331.410156 114.910156 C 348.226562 114.910156 361.855469 101.28125 361.855469 84.464844 Z M 303.863281 174.585938 L 230.664062 174.585938 C 230.664062 157.765625 240.9375 144.136719 253.617188 144.136719 L 326.816406 144.136719 C 326.816406 160.953125 316.542969 174.585938 303.863281 174.585938 " fill-opacity="1" fill-rule="nonzero"/></g><g transform="matrix(1, 0, 0, 1, 92, 185)"><g clip-path="url(#0d97500618)"><g fill="#000000" fill-opacity="1"><g transform="translate(2.910735, 49.402708)"><g><path d="M 28.453125 -40.65625 L 38.421875 -40.65625 L 23.78125 0 L 13.75 0 L -0.875 -40.65625 L 9.078125 -40.65625 L 18.765625 -11.578125 Z M 28.453125 -40.65625 "/></g></g></g><g fill="#000000" fill-opacity="1"><g transform="translate(51.66087, 49.402708)"><g><path d="M 36.515625 -40.65625 L 22.359375 -19.171875 L 22.359375 0 L 13.421875 0 L 13.421875 -19.109375 L -0.875 -40.65625 L 9.21875 -40.65625 L 17.890625 -26.890625 L 26.5625 -40.65625 Z M 36.515625 -40.65625 "/></g></g></g><g fill="#000000" fill-opacity="1"><g transform="translate(98.581908, 49.402708)"><g><path d="M 33.203125 -40.65625 L 42.078125 -40.65625 L 42.078125 0 L 32.859375 0 L 12.9375 -26.96875 L 12.9375 0 L 4 0 L 4 -40.65625 L 13.21875 -40.65625 L 33.203125 -13.75 Z M 33.203125 -40.65625 "/></g></g></g><g fill="#000000" fill-opacity="1"><g transform="translate(155.935586, 49.402708)"><g><path d="M 16.53125 0.546875 C 12.957031 0.546875 9.816406 -0.332031 7.109375 -2.09375 C 4.398438 -3.863281 2.390625 -6.007812 1.078125 -8.53125 L 8.46875 -13.140625 C 9.238281 -11.554688 10.320312 -10.28125 11.71875 -9.3125 C 13.125 -8.34375 14.75 -7.859375 16.59375 -7.859375 C 18.175781 -7.859375 19.40625 -8.195312 20.28125 -8.875 C 21.164062 -9.550781 21.609375 -10.453125 21.609375 -11.578125 C 21.609375 -12.753906 21.15625 -13.703125 20.25 -14.421875 C 19.351562 -15.148438 18.191406 -15.757812 16.765625 -16.25 C 15.347656 -16.75 13.835938 -17.28125 12.234375 -17.84375 C 10.628906 -18.414062 9.113281 -19.148438 7.6875 -20.046875 C 6.269531 -20.953125 5.109375 -22.128906 4.203125 -23.578125 C 3.296875 -25.023438 2.84375 -26.898438 2.84375 -29.203125 C 2.84375 -31.910156 3.472656 -34.144531 4.734375 -35.90625 C 6.003906 -37.664062 7.644531 -38.984375 9.65625 -39.859375 C 11.664062 -40.742188 13.734375 -41.1875 15.859375 -41.1875 C 18.390625 -41.1875 20.738281 -40.65625 22.90625 -39.59375 C 25.070312 -38.539062 26.898438 -37.15625 28.390625 -35.4375 L 22.421875 -29.75 C 21.429688 -30.875 20.367188 -31.738281 19.234375 -32.34375 C 18.109375 -32.957031 16.957031 -33.265625 15.78125 -33.265625 C 14.695312 -33.265625 13.769531 -32.992188 13 -32.453125 C 12.238281 -31.910156 11.859375 -31.050781 11.859375 -29.875 C 11.859375 -28.707031 12.304688 -27.78125 13.203125 -27.09375 C 14.109375 -26.414062 15.269531 -25.828125 16.6875 -25.328125 C 18.113281 -24.835938 19.617188 -24.296875 21.203125 -23.703125 C 22.785156 -23.117188 24.285156 -22.351562 25.703125 -21.40625 C 27.128906 -20.457031 28.296875 -19.203125 29.203125 -17.640625 C 30.109375 -16.085938 30.5625 -14.046875 30.5625 -11.515625 C 30.5625 -8.984375 29.914062 -6.8125 28.625 -5 C 27.332031 -3.195312 25.625 -1.820312 23.5 -0.875 C 21.382812 0.0703125 19.0625 0.546875 16.53125 0.546875 Z M 16.53125 0.546875 "/></g></g></g></g></g></svg>